<?xml version="1.0" encoding="iso-8859-1"?>
<!-- Generator: Adobe Illustrator 19.0.0, SVG Export Plug-In . SVG Version: 6.00 Build 0)  -->
<svg version="1.1" id="Layer_1" xmlns="http://www.w3.org/2000/svg" xmlns:xlink="http://www.w3.org/1999/xlink" x="0px" y="0px"
	 viewBox="0 0 512 512" style="enable-background:new 0 0 512 512;" xml:space="preserve">
<polygon style="fill:#1584B5;" points="423.12,438.62 438.404,503.184 149.093,503.457 "/>
<path style="fill:#666666;" d="M335.802,304.482c2.654,11.184-24.179,27.105-59.917,35.567c-35.738,8.451-66.852,6.241-69.495-4.943
	c-0.148-0.604-0.205-1.219-0.171-1.856l0.364-2.084c3.314-10.717,28.005-24.11,59.723-31.615
	c31.695-7.494,59.746-6.605,67.536,1.481l1.31,1.754C335.449,303.332,335.665,303.89,335.802,304.482z"/>
<polygon style="fill:#2BA5F7;" points="295.577,249.497 212.928,295.109 222.358,241.457 270.054,215.137 270.066,215.126 "/>
<g>
	<polygon style="fill:#F24C8F;" points="270.066,215.126 270.054,215.137 222.358,241.457 235.227,168.215 	"/>
	<path style="fill:#F24C8F;" d="M295.588,249.497l38.255,51.535c-7.79-8.086-35.841-8.974-67.536-1.481
		c-31.718,7.505-56.409,20.899-59.723,31.615l6.344-36.057l82.649-45.612L295.588,249.497L295.588,249.497z"/>
</g>
<path style="fill:#2BA5F7;" d="M362.896,8.544l99.573,420.761l-39.348,9.305v0.011l-274.027,64.837L49.532,82.696L362.896,8.544z
	 M419.829,369.854l-68.401-289.06c-21.422,5.068-42.902-8.189-47.97-29.611L121.783,94.165c5.068,21.434-8.189,42.913-29.622,47.981
	l68.413,289.06c21.422-5.068,42.902,8.189,47.97,29.622l181.675-42.993C385.15,396.413,398.406,374.934,419.829,369.854z"/>
<path style="fill:#F7B239;" d="M335.153,302.786c-0.342-0.615-0.774-1.196-1.31-1.754l-38.255-51.534h-0.011l-25.511-34.372
	l-34.838-46.911l-12.869,73.242l-9.43,53.653l-6.344,36.057c-0.216,0.706-0.342,1.401-0.364,2.084
	c-0.034,0.638,0.023,1.253,0.171,1.856c2.642,11.184,33.757,13.393,69.495,4.943c35.738-8.462,62.57-24.384,59.917-35.567
	C335.665,303.89,335.449,303.332,335.153,302.786z M351.428,80.794l68.401,289.06c-21.422,5.079-34.679,26.559-29.611,47.981
	l-181.675,42.993c-5.068-21.434-26.547-34.69-47.97-29.622l-68.413-289.06c21.434-5.068,34.69-26.547,29.622-47.981l181.675-42.981
	C308.526,72.606,330.005,85.862,351.428,80.794z"/>
<g>
	<path style="fill:#CC1B5B;" d="M309.513,161.152c-3.87,0-7.375-2.647-8.305-6.577l-1.68-7.101
		c-1.086-4.591,1.755-9.192,6.346-10.278c4.589-1.086,9.192,1.755,10.278,6.346l1.68,7.101c1.087,4.591-1.755,9.192-6.346,10.278
		C310.825,161.077,310.164,161.152,309.513,161.152z"/>
	<path style="fill:#CC1B5B;" d="M318.106,197.468c-3.87,0-7.375-2.647-8.305-6.577l-1.68-7.101
		c-1.086-4.591,1.755-9.192,6.346-10.278c4.586-1.089,9.192,1.755,10.278,6.346l1.68,7.101c1.087,4.591-1.755,9.192-6.346,10.278
		C319.419,197.394,318.758,197.468,318.106,197.468z"/>
	<path style="fill:#CC1B5B;" d="M327.578,172.302c-3.87,0-7.375-2.647-8.305-6.577c-1.086-4.591,1.755-9.192,6.346-10.278
		l7.101-1.68c4.591-1.09,9.192,1.755,10.278,6.346c1.086,4.591-1.755,9.192-6.346,10.278l-7.101,1.68
		C328.891,172.228,328.228,172.302,327.578,172.302z"/>
	<path style="fill:#CC1B5B;" d="M291.261,180.897c-3.87,0-7.375-2.647-8.305-6.577c-1.087-4.591,1.755-9.192,6.346-10.278
		l7.101-1.68c4.59-1.091,9.192,1.755,10.278,6.346s-1.755,9.192-6.346,10.278l-7.101,1.68
		C292.575,180.822,291.912,180.897,291.261,180.897z"/>
</g>
<g>
	<path style="fill:#E09B2D;" d="M181.082,125.44c-3.869,0-7.375-2.647-8.305-6.577c-1.086-4.591,1.755-9.193,6.345-10.278
		l79.533-18.82c4.591-1.088,9.192,1.754,10.278,6.345c1.086,4.591-1.755,9.193-6.345,10.278l-79.533,18.82
		C182.394,125.365,181.733,125.44,181.082,125.44z"/>
	<path style="fill:#E09B2D;" d="M251.37,422.47c-3.869,0-7.375-2.647-8.305-6.576c-1.086-4.591,1.755-9.193,6.345-10.278
		l79.533-18.82c4.589-1.09,9.192,1.755,10.278,6.345c1.086,4.59-1.755,9.193-6.345,10.278l-79.533,18.82
		C252.683,422.395,252.021,422.47,251.37,422.47z"/>
</g>
<path d="M470.779,427.337L371.213,6.577c-1.087-4.591-5.691-7.432-10.278-6.345L47.564,74.385c-2.205,0.522-4.111,1.899-5.302,3.826
	s-1.566,4.249-1.044,6.454l99.567,420.761c0.522,2.205,1.897,4.111,3.826,5.302c1.36,0.839,2.914,1.273,4.486,1.273
	c0.026,0,0.052-0.005,0.077-0.005l289.242-0.273c2.61-0.002,5.076-1.198,6.694-3.246c1.617-2.048,2.211-4.723,1.61-7.263
	l-13.315-56.255l31.027-7.342C469.025,436.53,471.866,431.928,470.779,427.337z M427.613,494.649l-205.015,0.194l194.185-45.951
	L427.613,494.649z M155.443,493.18L59.81,89.042l296.746-70.22l95.632,404.136L155.443,493.18z"/>
<path d="M349.463,72.479c-8.141,1.927-16.546,0.567-23.666-3.828c-7.119-4.395-12.101-11.299-14.028-19.441
	c-1.087-4.591-5.692-7.431-10.278-6.346L119.813,85.857c-2.205,0.522-4.111,1.897-5.302,3.826s-1.566,4.249-1.044,6.454
	c3.977,16.808-6.461,33.717-23.269,37.695c-4.591,1.086-7.431,5.689-6.345,10.278l68.404,289.067
	c0.522,2.205,1.897,4.111,3.826,5.302c1.929,1.19,4.251,1.566,6.454,1.044c8.141-1.926,16.547-0.567,23.666,3.828
	s12.101,11.299,14.028,19.441c0.522,2.205,1.897,4.111,3.826,5.301c1.36,0.839,2.914,1.273,4.486,1.273
	c0.657,0,1.318-0.075,1.967-0.23l181.677-42.992c2.205-0.522,4.111-1.897,5.302-3.826c1.19-1.927,1.566-4.249,1.044-6.454
	c-1.926-8.142-0.567-16.547,3.828-23.666c4.395-7.119,11.299-12.101,19.441-14.028c2.205-0.522,4.111-1.897,5.302-3.826
	c1.19-1.927,1.566-4.249,1.044-6.454L359.741,78.825c-0.522-2.205-1.897-4.111-3.826-5.301
	C353.988,72.334,351.666,71.958,349.463,72.479z M409.726,364.241c-9.025,3.896-16.632,10.446-21.904,18.985
	c-5.272,8.539-7.716,18.276-7.156,28.089L214.16,450.716c-3.896-9.025-10.446-16.632-18.985-21.904
	c-7.74-4.778-16.464-7.234-25.337-7.234c-0.916,0-1.835,0.026-2.753,0.079l-64.815-273.903c18.506-8.028,30.17-26.924,29.053-47.066
	l166.514-39.403c3.896,9.025,10.446,16.632,18.985,21.904c8.539,5.271,18.275,7.718,28.089,7.156L409.726,364.241z"/>
<path d="M342.361,298.189l0.017,0.001l-0.076-0.103c-0.489-0.807-100.218-134.969-100.218-134.969
	c-2.035-2.74-5.504-4.005-8.825-3.22c-3.321,0.786-5.855,3.472-6.446,6.833c0,0-29.026,164.63-29.101,165.573l-0.022,0.124
	l0.015-0.009c-0.123,1.699,0.04,3.262,0.371,4.66c1.565,6.612,8.047,14.823,30.047,16.383c2.494,0.177,5.106,0.264,7.817,0.264
	c12.471,0,27.043-1.852,41.913-5.371c18.104-4.283,34.704-10.578,46.744-17.723c18.967-11.256,21.083-21.5,19.518-28.112
	C343.786,301.122,343.231,299.652,342.361,298.189z M230.056,246.964l37.6-20.749l15.244,20.53l-58.476,32.265L230.056,246.964z
	 M220.627,300.615l72.55-40.031l18.888,25.438c-13.635-0.694-30.474,1.139-47.726,5.221c-17.252,4.083-33.128,9.991-45.004,16.722
	L220.627,300.615z M240.202,189.24l17.178,23.134l-23.525,12.982L240.202,189.24z M273.92,331.731
	c-34.268,8.109-54.789,4.527-58.947,1.35c2.291-4.705,19.032-17.104,53.3-25.214c34.269-8.109,54.789-4.527,58.947-1.348
	C324.928,311.224,308.188,323.623,273.92,331.731z"/>
<circle cx="429.006" cy="408.654" r="8.542"/>
<circle cx="169.751" cy="470.006" r="8.542"/>
<circle cx="82.981" cy="103.342" r="8.542"/>
<circle cx="342.246" cy="42.003" r="8.542"/>
<g>
</g>
<g>
</g>
<g>
</g>
<g>
</g>
<g>
</g>
<g>
</g>
<g>
</g>
<g>
</g>
<g>
</g>
<g>
</g>
<g>
</g>
<g>
</g>
<g>
</g>
<g>
</g>
<g>
</g>
</svg>
