<?xml version="1.0" encoding="utf-8"?>
<!-- Generator: Adobe Illustrator 22.0.1, SVG Export Plug-In . SVG Version: 6.00 Build 0)  -->
<svg version="1.1" id="Layer_1" xmlns="http://www.w3.org/2000/svg" xmlns:xlink="http://www.w3.org/1999/xlink" x="0px" y="0px"
	 viewBox="0 0 512 512" style="enable-background:new 0 0 512 512;" xml:space="preserve">
<style type="text/css">
	.st0{fill:#35216D;}
	.st1{fill:#EDF3FC;}
	.st2{fill:#330D84;}
	.st3{fill:#FFBE1B;}
	.st4{fill:#0061F3;}
	.st5{fill:#8C7BFD;}
	.st6{fill:#FFFFFF;}
	.st7{fill:#5932AE;}
	.st8{fill:#1C46C4;}
	.st9{fill:#6857E5;}
	.st10{fill:#5D8EF9;}
	.st11{fill:#8AC9F9;}
	.st12{fill:#FFE37B;}
	.st13{fill:#FFD000;}
	.st14{fill:#2EF39E;}
	.st15{fill:#330D84;stroke:#330D84;stroke-width:0.6306;stroke-linecap:round;stroke-linejoin:round;stroke-miterlimit:10;}
	.st16{fill:#FFFFFF;stroke:#FFFFFF;stroke-width:0.737;stroke-linecap:round;stroke-linejoin:round;stroke-miterlimit:10;}
	.st17{fill:none;}
	.st18{fill:#FDB813;}
</style>
<g>
	<g>
		<g>
			<path class="st1" d="M255.999,40.928c-118.778,0-215.071,96.294-215.071,215.074c0,118.776,96.292,215.068,215.071,215.068
				S471.07,374.778,471.07,256.002C471.07,137.222,374.777,40.928,255.999,40.928z"/>
		</g>
	</g>
	<g>
		<g>
			<path class="st1" d="M255.999,1C115.391,1,1,115.392,1,256.002C1,396.609,115.391,511,255.999,511S511,396.609,511,256.002
				C511,115.392,396.607,1,255.999,1z M255.999,502.831c-136.103,0-246.83-110.727-246.83-246.829
				c0-136.104,110.727-246.834,246.83-246.834c136.102,0,246.832,110.729,246.832,246.834
				C502.831,392.104,392.101,502.831,255.999,502.831z"/>
		</g>
	</g>
	<g>
		<g>
			<path class="st10" d="M419.794,344.294c-10.079-2.523-17.945-10.394-20.474-20.471l-0.428-1.72l-0.433,1.72
				c-2.524,10.078-10.394,17.948-20.471,20.471l-1.721,0.433l1.721,0.433c10.077,2.524,17.947,10.392,20.471,20.469l0.433,1.719
				l0.428-1.719c2.529-10.077,10.395-17.945,20.474-20.469l1.721-0.433L419.794,344.294z"/>
		</g>
	</g>
	<polygon class="st14" points="374.984,388.653 137.016,388.653 167.318,276.084 344.682,276.084 	"/>
	<polygon class="st10" points="374.984,388.653 137.016,388.653 167.318,276.084 344.682,276.084 	"/>
	<polygon class="st11" points="351.335,300.797 157.495,312.578 147.25,350.637 227.126,343.174 196.349,388.653 241.799,388.653 
		284.029,345.082 360.14,333.508 	"/>
	<path class="st2" d="M343.117,190.464c0,61.438-87.117,154.538-87.117,154.538s-87.117-93.1-87.117-154.538
		c0-48.113,39.004-87.117,87.117-87.117S343.117,142.351,343.117,190.464z"/>
	<circle class="st3" cx="256" cy="193.873" r="37.877"/>
	<path class="st3" d="M392.172,155.64l1.415,0.355l-1.415,0.355c-8.289,2.076-14.757,8.547-16.833,16.835l-0.357,1.413l-0.354-1.413
		c-2.076-8.288-8.547-14.759-16.838-16.835l-1.411-0.355l1.411-0.355c8.291-2.076,14.762-8.548,16.838-16.833l0.354-1.413
		l0.357,1.413C377.415,147.092,383.883,153.564,392.172,155.64L392.172,155.64z"/>
	<path class="st2" d="M135.339,197.045l2.469,0.588l-2.469,0.59c-14.432,3.464-25.696,14.259-29.322,28.08l-0.618,2.36l-0.612-2.36
		c-3.622-13.821-14.892-24.617-29.329-28.08L73,197.633l2.458-0.588c14.437-3.465,25.707-14.264,29.329-28.081l0.612-2.362
		l0.618,2.362C109.643,182.782,120.908,193.581,135.339,197.045L135.339,197.045z"/>
	<path class="st2" d="M159.451,147.016l1.523,0.379l-1.523,0.38c-8.895,2.229-15.84,9.177-18.074,18.074l-0.38,1.519l-0.378-1.519
		c-2.232-8.897-9.18-15.846-18.079-18.074l-1.515-0.38l1.515-0.379c8.899-2.23,15.847-9.181,18.079-18.076l0.378-1.519l0.38,1.519
		C143.611,137.835,150.556,144.786,159.451,147.016L159.451,147.016z"/>
</g>
</svg>
