<?xml version="1.0" encoding="UTF-8"?>
<!DOCTYPE svg PUBLIC "-//W3C//DTD SVG 1.1//EN" "http://www.w3.org/Graphics/SVG/1.1/DTD/svg11.dtd">
<!-- Creator: CorelDRAW X5 -->
<svg xmlns="http://www.w3.org/2000/svg" xml:space="preserve" width="2048px" height="2048px" style="shape-rendering:geometricPrecision; text-rendering:geometricPrecision; image-rendering:optimizeQuality; fill-rule:evenodd; clip-rule:evenodd"
viewBox="0 0 2048 2048"
 xmlns:xlink="http://www.w3.org/1999/xlink">
 <defs>
  <style type="text/css">
   <![CDATA[
    .fil6 {fill:none}
    .fil5 {fill:#020D1A}
    .fil1 {fill:#051324}
    .fil0 {fill:#15262E}
    .fil2 {fill:#4FC3F7}
    .fil3 {fill:#81D4FA}
    .fil4 {fill:white}
   ]]>
  </style>
 </defs>
 <g id="Layer_x0020_1">
  <metadata id="CorelCorpID_0Corel-Layer"/>
  <path class="fil0" d="M584 252l847 0c10,0 19,2 28,6 9,4 17,9 23,16 7,7 12,15 16,23 4,9 6,18 6,28l0 1391c0,10 -2,19 -6,28 -4,9 -9,17 -16,23 -7,7 -15,12 -23,16 -9,4 -18,6 -28,6l-847 0c-10,0 -19,-2 -28,-6 -9,-4 -17,-9 -23,-16 -7,-7 -12,-15 -16,-23 -4,-9 -6,-18 -6,-28l0 -1391c0,-10 2,-19 6,-28 4,-9 9,-17 16,-23 7,-7 15,-12 23,-16 9,-4 18,-6 28,-6z"/>
  <polygon class="fil1" points="608,374 1408,374 1408,1468 608,1468 "/>
  <polygon class="fil2" points="618,391 1395,391 1395,1468 618,1468 "/>
  <polygon class="fil3" points="732,391 733,391 1395,391 1395,1468 1219,1468 1219,1468 "/>
  <polygon class="fil2" points="618,391 732,391 1219,1468 618,1468 "/>
  <path class="fil4" d="M1036 1566c-4,-2 -8,-2 -12,-2 -5,0 -9,1 -12,2 -4,2 -7,4 -10,7 -3,3 -5,7 -7,10 -2,4 -2,8 -2,12 0,4 1,9 2,12 2,4 4,8 7,11 3,3 6,5 10,7 4,2 8,2 12,2 4,0 9,-1 12,-2 4,-2 8,-4 10,-7 3,-3 5,-7 7,-11 2,-4 2,-8 2,-12 0,-5 -1,-9 -2,-12 -2,-4 -4,-7 -7,-10 -3,-3 -6,-5 -10,-7z"/>
  <path class="fil4" d="M1008 1524c13,0 25,3 37,7 12,5 22,12 31,21 9,9 16,19 21,31 5,11 7,24 7,37 0,13 -3,25 -7,37 -5,12 -12,22 -21,31 -9,9 -19,16 -31,21 -11,5 -24,7 -37,7 -13,0 -25,-3 -37,-7 -12,-5 -22,-12 -31,-21 -9,-9 -16,-19 -21,-31 -5,-11 -7,-24 -7,-37 0,-13 3,-25 7,-37 5,-12 12,-22 21,-31 9,-9 19,-16 31,-21 11,-5 24,-7 37,-7z"/>
  <rect class="fil5" x="895" y="309" width="226" height="25" rx="13" ry="13"/>
  <path class="fil1" d="M1008 1542c10,0 20,2 30,6 10,4 18,10 25,17 7,7 13,16 17,25 4,9 6,19 6,30 0,10 -2,20 -6,30 -4,9 -10,18 -17,25 -7,7 -16,13 -25,17 -9,4 -19,6 -30,6 -10,0 -20,-2 -30,-6 -9,-4 -18,-10 -25,-17 -7,-7 -13,-16 -17,-25 -4,-9 -6,-19 -6,-30 0,-10 2,-20 6,-30 4,-10 10,-18 17,-25 7,-7 16,-13 25,-17 9,-4 19,-6 30,-6z"/>
  <rect class="fil6" width="2048" height="2048"/>
 </g>
</svg>
