<?xml version="1.0" ?>
<!DOCTYPE svg  PUBLIC '-//W3C//DTD SVG 1.1//EN'  'http://www.w3.org/Graphics/SVG/1.1/DTD/svg11.dtd'>
<!-- Uploaded to: SVG Repo, www.svgrepo.com, Generator: SVG Repo Mixer Tools -->
<svg fill="#000000" width="800px" height="800px" viewBox="0 0 846.66 846.66" style="shape-rendering:geometricPrecision; text-rendering:geometricPrecision; image-rendering:optimizeQuality; fill-rule:evenodd; clip-rule:evenodd" version="1.1" xml:space="preserve" xmlns="http://www.w3.org/2000/svg" xmlns:xlink="http://www.w3.org/1999/xlink">
<defs>
<style type="text/css">
   <![CDATA[
    .fil0 {fill:black;fill-rule:nonzero}
   ]]>
  </style>
</defs>
<g id="Layer_x0020_1">
<path class="fil0" d="M174.61 513.03l0 -481.99c0,-11.4 9.24,-20.64 20.64,-20.64l458.76 0c87.86,0 159.66,71.8 159.66,159.66l0 503.93c0,11.41 -9.24,20.65 -20.64,20.65l-436.81 0c-10.26,80.85 -79.33,141.62 -160.97,141.62 -89.61,0 -162.26,-72.65 -162.26,-162.27 0,-81.63 60.78,-150.7 141.62,-160.96zm-59.12 194.24c-19.2,-19.2 10,-48.39 29.2,-29.19l28.09 28.09 70.38 -108.12c14.72,-22.67 49.24,-0.25 34.52,22.42l-83.38 128.07c-6.51,12.05 -22.93,14.61 -32.76,4.78l-46.05 -46.05zm240.73 -53.92l416.16 0 0 -483.29c0,-65.06 -53.31,-118.37 -118.37,-118.37l-438.11 0 0 461.34c73.1,9.28 131.04,67.21 140.32,140.32zm-160.97 -100.33c-66.81,0 -120.97,54.16 -120.97,120.97 0,66.82 54.16,120.98 120.97,120.98 66.82,0 120.98,-54.16 120.98,-120.98 0,-66.81 -54.16,-120.97 -120.98,-120.97zm428.34 -254.17l92.1 0c11.4,0 20.64,9.25 20.64,20.65l0 217.21c0,11.4 -9.24,20.65 -20.64,20.65l-92.1 0c-11.4,0 -20.65,-9.25 -20.65,-20.65l0 -217.21c0,-11.4 9.25,-20.65 20.65,-20.65zm71.45 41.29l-50.81 0 0 175.92 50.81 0 0 -175.92zm-170.49 -163.34c-27.16,0 -27.16,-41.29 0,-41.29l156.39 0c27.16,0 27.16,41.29 0,41.29l-156.39 0zm0 69.51c-27.16,0 -27.16,-41.29 0,-41.29l156.39 0c27.16,0 27.16,41.29 0,41.29l-156.39 0zm-255.44 218.95c-27.16,0 -27.16,-41.29 0,-41.29l284.98 0c27.15,0 27.15,41.29 0,41.29l-284.98 0zm0 -59.08c-27.16,0 -27.16,-41.29 0,-41.29l284.98 0c27.15,0 27.15,41.29 0,41.29l-284.98 0zm0 -59.08c-27.16,0 -27.16,-41.3 0,-41.3l205.04 0c27.16,0 27.16,41.3 0,41.3l-205.04 0zm4.34 -253.29l152.92 0c11.4,0 20.64,9.24 20.64,20.64l0 152.92c0,11.4 -9.24,20.65 -20.64,20.65l-152.92 0c-11.4,0 -20.64,-9.25 -20.64,-20.65l0 -152.92c0,-11.4 9.24,-20.64 20.64,-20.64zm132.27 41.29l-111.62 0 0 111.63 111.62 0 0 -111.63z"/>
</g>
</svg>