<?xml version="1.0" encoding="utf-8"?>
<!-- Generator: Adobe Illustrator 22.1.0, SVG Export Plug-In . SVG Version: 6.00 Build 0)  -->
<svg version="1.1" id="Layer_1" xmlns="http://www.w3.org/2000/svg" xmlns:xlink="http://www.w3.org/1999/xlink" x="0px" y="0px"
	 viewBox="0 0 256 256" style="enable-background:new 0 0 256 256;" xml:space="preserve">
<style type="text/css">
	.st0{fill:#231F20;}
	.st1{fill:#FFEFE4;}
	.st2{fill:#69EBFC;}
	.st3{fill:#5FD4E3;}
	.st4{fill:#A1F1FC;}
	.st5{fill:#D476E2;}
	.st6{fill:#B665C2;}
	.st7{fill:#EA82FA;}
	.st8{fill:#FFF7F2;}
	.st9{fill:#FF8354;}
	.st10{fill:#FFA172;}
	.st11{fill:#6770E6;}
	.st12{fill:#5861C7;}
	.st13{fill:#E0734A;}
	.st14{fill:#EDD4C2;}
	.st15{fill:#CC6944;}
	.st16{fill:#858EFF;}
	.st17{fill:#C76642;}
	.st18{fill:#FFFFFF;}
	.st19{fill:#FFDEC7;}
	.st20{fill:#4E56B0;}
	.st21{fill:#94529E;}
	.st22{fill:#41B6C5;}
	.st23{fill:#9847A4;}
	.st24{fill:#C2552C;}
	.st25{fill:#CFB6A4;}
</style>
<g>
	<path class="st11" d="M240,198H16c-8.837,0-16-7.163-16-16V16C0,7.163,7.163,0,16,0h224c8.837,0,16,7.163,16,16v166
		C256,190.837,248.837,198,240,198z"/>
	<path class="st16" d="M240,0H16C7.163,0,0,7.163,0,16v6C0,13.163,7.163,6,16,6h224c8.837,0,16,7.163,16,16v-6
		C256,7.163,248.837,0,240,0z"/>
	<path class="st1" d="M15,175V23c0-4.418,3.582-8,8-8h210c4.418,0,8,3.582,8,8v152c0,4.418-3.582,8-8,8H23
		C18.582,183,15,179.418,15,175z"/>
	<rect x="91" y="-35" transform="matrix(-1.836970e-16 1 -1 -1.836970e-16 206 -50)" class="st5" width="74" height="226"/>
	<path class="st1" d="M15,41V23c0-4.418,3.582-8,8-8h210c4.418,0,8,3.582,8,8v18H15z"/>
	<path class="st11" d="M189,256H67c-4.418,0-8-3.582-8-8v-4c0-4.418,3.582-8,8-8h122c4.418,0,8,3.582,8,8v4
		C197,252.418,193.418,256,189,256z"/>
	<path class="st12" d="M189,250H67c-4.079,0-7.438-3.055-7.931-7c-0.041,0.328-0.069,0.661-0.069,1v4c0,4.418,3.582,8,8,8h122
		c4.418,0,8-3.582,8-8v-4c0-0.339-0.028-0.672-0.069-1C196.438,246.945,193.079,250,189,250z"/>
	<rect x="98" y="198" class="st12" width="60" height="38"/>
	<circle class="st9" cx="29" cy="28" r="4"/>
	<circle class="st2" cx="46" cy="28" r="4"/>
	<circle class="st5" cx="63" cy="28" r="4"/>
	<path class="st9" d="M49,130h30c2.209,0,4,1.791,4,4v16c0,2.209-1.791,4-4,4H49c-2.209,0-4-1.791-4-4v-16
		C45,131.791,46.791,130,49,130z"/>
	<path class="st2" d="M113,130h30c2.209,0,4,1.791,4,4v16c0,2.209-1.791,4-4,4h-30c-2.209,0-4-1.791-4-4v-16
		C109,131.791,110.791,130,113,130z"/>
	<path class="st5" d="M177,130h30c2.209,0,4,1.791,4,4v16c0,2.209-1.791,4-4,4h-30c-2.209,0-4-1.791-4-4v-16
		C173,131.791,174.791,130,177,130z"/>
	<path class="st14" d="M48,161h32c1.657,0,3,1.343,3,3l0,0c0,1.657-1.343,3-3,3H48c-1.657,0-3-1.343-3-3l0,0
		C45,162.343,46.343,161,48,161z"/>
	<path class="st14" d="M112,161h32c1.657,0,3,1.343,3,3l0,0c0,1.657-1.343,3-3,3h-32c-1.657,0-3-1.343-3-3l0,0
		C109,162.343,110.343,161,112,161z"/>
	<path class="st14" d="M176,161h32c1.657,0,3,1.343,3,3l0,0c0,1.657-1.343,3-3,3h-32c-1.657,0-3-1.343-3-3l0,0
		C173,162.343,174.343,161,176,161z"/>
	<path class="st2" d="M137,62h32c1.657,0,3,1.343,3,3l0,0c0,1.657-1.343,3-3,3h-32c-1.657,0-3-1.343-3-3l0,0
		C134,63.343,135.343,62,137,62z"/>
	<path class="st2" d="M137,75h52c1.657,0,3,1.343,3,3l0,0c0,1.657-1.343,3-3,3h-52c-1.657,0-3-1.343-3-3l0,0
		C134,76.343,135.343,75,137,75z"/>
	<path class="st2" d="M137,88h42c1.657,0,3,1.343,3,3l0,0c0,1.657-1.343,3-3,3h-42c-1.657,0-3-1.343-3-3l0,0
		C134,89.343,135.343,88,137,88z"/>
	<circle class="st2" cx="94" cy="78" r="26"/>
</g>
</svg>
